<svg width="240" height="64" viewBox="0 0 240 64" fill="none" xmlns="http://www.w3.org/2000/svg">
<g clip-path="url(#clip0)">
<path d="M7.4504 45.4885L0.125 18.4837H4.93024L10.5586 39.2248L16.5907 18.4819L21.07 18.4837L27.1232 39.335L32.7769 18.4888L37.582 18.4819L30.2535 45.4837L24.6837 45.478L18.8322 25.3112L12.9752 45.4832L7.4504 45.4885Z" fill="white"/>
<path d="M40.896 18.4977H45.4701V45.471H40.896V18.4977Z" fill="white"/>
<path d="M55.2495 41.2399H66.3852V45.471H50.77V18.4977H55.2495V41.2399Z" fill="white"/>
<path d="M80.455 18.5288C84.2089 18.5288 87.332 19.8355 89.7926 22.4177C92.2847 24.9999 93.5466 28.2044 93.5466 31.9999C93.5466 35.7644 92.2847 38.9688 89.7926 41.5821C87.332 44.1644 84.2089 45.471 80.455 45.471H69.6978V18.4977H80.455V18.5288ZM80.455 41.271C83.0417 41.271 85.1553 40.3999 86.7326 38.6577C88.373 36.9155 89.1932 34.6755 89.1932 32.031C89.1932 29.3244 88.373 27.1466 86.7326 25.4044C85.1238 23.6621 83.0102 22.791 80.455 22.791H74.2089V41.271H80.455Z" fill="white"/>
<path d="M117.679 37.7655C117.679 39.9755 116.891 41.812 115.282 43.275C113.673 44.738 111.78 45.485 109.446 45.485H97.7422V18.4977H108.594C110.834 18.4977 112.726 19.2448 114.272 20.6455C115.85 22.0773 116.607 23.8516 116.607 25.9682C116.607 28.3339 115.66 30.1393 113.831 31.4778C116.228 32.7229 117.679 34.964 117.679 37.7655ZM102.253 22.6688V29.7658H108.625C110.613 29.7658 112.127 28.2094 112.127 26.2173C112.127 24.2251 110.613 22.6688 108.625 22.6688H102.253ZM109.477 41.314C111.559 41.314 113.2 39.6642 113.2 37.5476C113.2 35.4309 111.559 33.7812 109.477 33.7812H102.253V41.3451H109.477V41.314Z" fill="white"/>
<path d="M126.417 41.2517H138.531V45.485H121.938V18.4977H138.342V22.731H126.417V29.7346H137.364V33.9368H126.417V41.2517Z" fill="white"/>
<path d="M158.153 45.485L152.348 35.6488H147.048V45.485H142.569V18.4977H153.515C155.976 18.4977 158.058 19.3381 159.73 21.0501C161.433 22.6999 162.317 24.7543 162.317 27.1822C162.317 30.6062 160.14 33.75 156.891 34.9951L163.105 45.485H158.153ZM147.048 22.6687V31.6956H153.484C155.881 31.6956 157.774 29.7035 157.774 27.1822C157.774 24.692 155.85 22.6687 153.484 22.6687H147.048Z" fill="white"/>
<path d="M182.096 45.4849L176.323 35.6436H171.023V45.4849H166.544V18.4836H177.49C179.951 18.4836 182.033 19.3245 183.705 21.0374C185.408 22.688 186.292 24.7434 186.292 27.1726C186.292 30.5984 184.115 33.7439 180.866 34.9896L187.08 45.4849H182.096ZM171.023 22.6568V31.6884H177.459C179.856 31.6884 181.749 29.6952 181.749 27.1726C181.749 24.6812 179.825 22.6568 177.459 22.6568H171.023Z" fill="white"/>
<path d="M190.361 18.4867H194.841V45.485H190.361V18.4867Z" fill="white"/>
<path d="M204.62 41.2517H216.734V45.4849H200.14V18.4977H216.544V22.731H204.62V29.7346H215.566V33.9368H204.62V41.2517Z" fill="white"/>
<path d="M219.857 39.3422L223.737 37.1022C224.841 40.1511 227.081 41.6444 230.519 41.6444C233.926 41.6444 235.598 40.2133 235.598 38.0978C235.598 36.9778 235.125 36.1689 234.242 35.6089C233.358 35.0178 231.718 34.3644 229.384 33.68C226.765 32.9022 225.472 32.4044 223.642 31.2222C221.876 29.9778 220.992 28.2044 220.992 25.7778C220.992 23.3822 221.844 21.5156 223.579 20.1156C225.283 18.6844 227.365 18 229.794 18C234.179 18 237.554 20.24 239.321 23.9422L235.535 26.0889C234.399 23.6 232.475 22.3244 229.794 22.3244C227.175 22.3244 225.503 23.6311 225.503 25.6844C225.503 27.6756 226.828 28.6089 231.024 29.8844C232.065 30.2267 232.822 30.4756 233.295 30.6622C233.8 30.8178 234.462 31.0978 235.314 31.44C236.198 31.7822 236.892 32.1867 237.302 32.5289C238.753 33.6489 240.298 35.4844 240.109 38.0667C240.109 40.4933 239.226 42.4533 237.428 43.8844C235.661 45.3156 233.327 46 230.425 46C225.125 45.9689 221.276 43.48 219.857 39.3422Z" fill="white"/>
</g>
<defs>
<clipPath id="clip0">
<rect width="240" height="64" fill="white"/>
</clipPath>
</defs>
</svg>
