<?xml version="1.0" encoding="utf-8"?>
<!-- Generator: Adobe Illustrator 25.2.0, SVG Export Plug-In . SVG Version: 6.00 Build 0)  -->
<svg version="1.1" id="katman_1" xmlns="http://www.w3.org/2000/svg" xmlns:xlink="http://www.w3.org/1999/xlink" x="0px" y="0px"
	 viewBox="0 0 409.8 120" style="enable-background:new 0 0 409.8 120;" xml:space="preserve">
<style type="text/css">
	.st0{fill:#FFFFFF;stroke:#FFFFFF;stroke-width:0.48;stroke-miterlimit:10;}
	.st1{fill:#FFFFFF;}
	.st2{fill:url(#android-path64_1_);}
	.st3{fill:url(#android-path78_1_);}
	.st4{fill:url(#android-path88_1_);}
	.st5{fill:url(#android-path104_1_);}
</style>
<g id="android-g10" transform="translate(0 0)">
	<g id="android-g12">
		<path id="android-path14" d="M394.6,120H15.2c-8.3,0-15.1-6.7-15.2-15V15C0.1,6.7,6.8,0,15.2,0h379.4c8.3,0,15.1,6.7,15.2,15v90
			C409.7,113.3,402.9,120,394.6,120z"/>
		<g id="android-g18">
			<path id="android-path20" class="st0" d="M143.9,30.7c0.1,2.2-0.7,4.4-2.2,6c-1.8,1.8-4.2,2.8-6.7,2.7c-2.5,0-4.9-0.9-6.7-2.7
				s-2.8-4.2-2.8-6.7c-0.1-2.5,0.9-4.9,2.8-6.7c1.8-1.8,4.2-2.8,6.7-2.7c1.3,0,2.6,0.3,3.7,0.8c1.1,0.4,2.1,1.1,2.8,2l-1.6,1.6
				c-1.3-1.4-3.1-2.2-5-2.1c-1.9,0-3.7,0.7-5,2c-1.4,1.3-2.1,3.2-2.1,5.1c-0.1,2,0.7,3.8,2.1,5.2c1.3,1.3,3.1,2,5,2
				c1.9,0.1,3.7-0.7,5.1-2c0.9-1,1.5-2.3,1.5-3.7H135v-2.2h8.8C143.9,29.8,143.9,30.3,143.9,30.7L143.9,30.7z"/>
		</g>
		<g id="android-g22">
			<path id="android-path24" class="st0" d="M157.9,23.2h-8.3v5.7h7.5V31h-7.5v5.7h8.3v2.2h-10.6v-18h10.6V23.2L157.9,23.2z"/>
		</g>
		<g id="android-g26">
			<path id="android-path28" class="st0" d="M167.8,39h-2.4V23.2h-5.1V21h12.5v2.2h-5.1V39H167.8z"/>
		</g>
		<g id="android-g30">
			<path id="android-path32" class="st0" d="M181.9,39V21h2.3v18C184.3,39,181.9,39,181.9,39z"/>
		</g>
		<g id="android-g34">
			<path id="android-path36" class="st0" d="M194.6,39h-2.3V23.2h-5.1V21h12.5v2.2h-5.1L194.6,39L194.6,39z"/>
		</g>
		<g id="android-g38">
			<path id="android-path40" class="st0" d="M223.4,36.7c-1.7,1.8-4.2,2.8-6.7,2.7c-2.5,0.1-4.9-0.9-6.7-2.7s-2.7-4.2-2.7-6.7
				c-0.1-2.5,0.9-4.9,2.7-6.7c1.8-1.8,4.2-2.8,6.7-2.7c2.5-0.1,4.9,0.9,6.7,2.7c1.8,1.8,2.7,4.2,2.7,6.7
				C226.2,32.5,225.2,34.9,223.4,36.7L223.4,36.7z M211.8,35.2c1.3,1.3,3.1,2.1,5,2c1.9,0,3.6-0.7,4.9-2c1.3-1.4,2.1-3.2,2-5.2
				c0.1-1.9-0.7-3.8-2-5.2c-1.3-1.3-3.1-2-4.9-2c-1.9-0.1-3.7,0.7-5,2c-1.3,1.4-2.1,3.2-2,5.2C209.7,31.9,210.5,33.8,211.8,35.2
				L211.8,35.2z"/>
		</g>
		<g id="android-g42">
			<path id="android-path44" class="st0" d="M229.4,39V21h2.8l8.8,14h0.1l-0.1-3.5V21h2.3v18H241l-9.3-14.7h-0.1l0.1,3.5V39H229.4z"
				/>
		</g>
		<path id="android-path46" class="st1" d="M206.8,65.3c-7,0.2-12.5,6-12.3,13s6,12.5,13,12.3s12.5-6,12.3-13
			c-0.1-3.3-1.5-6.4-3.8-8.7C213.6,66.5,210.2,65.2,206.8,65.3z M206.8,85.7c-4.1-0.1-7.4-3.5-7.3-7.6c0-0.1,0-0.1,0-0.2
			c-0.2-4,2.9-7.5,6.9-7.7s7.5,2.9,7.7,6.9c0,0.3,0,0.5,0,0.8c0.2,4.1-3,7.6-7.1,7.7C206.9,85.7,206.9,85.7,206.8,85.7z M178.9,65.3
			c-7,0.2-12.5,6-12.3,13s6,12.5,13,12.3s12.5-6,12.3-13c-0.1-3.3-1.5-6.4-3.8-8.7C185.7,66.5,182.3,65.2,178.9,65.3z M178.9,85.7
			c-4.1-0.1-7.4-3.5-7.3-7.6c0-0.1,0-0.1,0-0.2c-0.2-4,2.9-7.5,6.9-7.7s7.5,2.9,7.7,6.9c0,0.3,0,0.5,0,0.8c0.2,4.1-3,7.6-7.1,7.7
			C179,85.7,179,85.7,178.9,85.7z M144.9,69.2v5.4H158c-0.2,2.5-1.3,4.9-3,6.8c-2.7,2.7-6.3,4.1-10.1,4c-8-0.2-14.2-6.8-14-14.8
			c0.2-7.7,6.4-13.8,14-14c3.7-0.1,7.2,1.3,9.9,3.9l3.9-3.8c-3.6-3.6-8.6-5.6-13.7-5.5c-11,0-20.3,8.9-20.3,19.8S134,90.8,145,90.8
			c6,0,10.5-1.9,14-5.6c3.2-3.5,4.9-8,4.8-12.7c0-1.1-0.1-2.3-0.3-3.4L144.9,69.2z M282.4,73.4c-1.1-2.9-4.4-8.1-11.1-8.1
			s-12.2,5.2-12.2,12.8c-0.1,6.9,5.4,12.6,12.3,12.8c0.1,0,0.3,0,0.4,0c4.3,0,8.3-2.1,10.8-5.7l-4.4-2.9c-1.4,2.2-3.8,3.5-6.4,3.5
			c-2.7,0.1-5.1-1.4-6.2-3.9l17.2-7L282.4,73.4L282.4,73.4z M264.8,77.6c-0.2-3.9,2.7-7.2,6.5-7.4c0.1,0,0.1,0,0.2,0
			c2-0.1,3.9,0.9,4.8,2.7L264.8,77.6L264.8,77.6z M250.8,90h5.7V52.5h-5.7V90z M241.5,68.1h-0.2c-1.7-1.9-4.2-2.9-6.8-2.8
			c-7,0.3-12.5,6.2-12.3,13.3c0.3,6.7,5.6,12,12.3,12.3c2.6,0.1,5-1,6.8-2.9h0.2v1.8c0,4.9-2.6,7.5-6.9,7.5
			c-2.9-0.1-5.5-1.9-6.5-4.6l-4.9,2c1.9,4.6,6.5,7.6,11.4,7.5c6.7,0,12.3-3.9,12.3-13.3V66h-5.4L241.5,68.1L241.5,68.1z M235,85.7
			c-4.1-0.1-7.3-3.5-7.2-7.5c0-0.1,0-0.1,0-0.2c0-4.5,3.3-7.8,7.2-7.8s6.9,3.3,6.9,7.8S238.9,85.7,235,85.7z M309,52.5h-13.5V90h5.7
			V75.8h7.9c6.3,0,12.5-4.5,12.5-11.7S315.3,52.5,309,52.5z M309.1,70.6H301V57.7h8.1c3.6-0.1,6.6,2.8,6.6,6.4
			S312.7,70.6,309.1,70.6L309.1,70.6z M344.1,65.2c-4.1,0-8.3,1.8-10.1,5.8l5,2.1c1.1-2.1,3.1-2.8,5.2-2.8c2.9,0,5.9,1.8,6,4.8v0.4
			c-1.8-1-3.9-1.5-5.9-1.5c-5.4,0-10.9,2.9-10.9,8.4c0,5,4.4,8.3,9.4,8.3c2.9,0.2,5.6-1.2,7.2-3.7h0.2v2.9h5.5V75.6
			C355.7,68.9,350.7,65.2,344.1,65.2L344.1,65.2z M343.5,85.7c-1.9,0-4.4-0.9-4.4-3.2c0-2.9,3.2-4,6-4c1.8,0,3.6,0.4,5.2,1.3
			C349.8,83.2,346.9,85.7,343.5,85.7L343.5,85.7z M375.6,66l-6.5,16.3h-0.2L362.2,66h-6.1l10.1,22.7l-5.8,12.6h5.9L381.9,66H375.6
			L375.6,66z M324.6,90h5.7V52.5h-5.7V90L324.6,90z"/>
		<g id="android-g48">
			
				<linearGradient id="android-path64_1_" gradientUnits="userSpaceOnUse" x1="-177.3707" y1="9.1119" x2="-178.6657" y2="9.7879" gradientTransform="matrix(39.2521 0 0 75.2 7068.6479 -699.5945)">
				<stop  offset="0" style="stop-color:#00A0FF"/>
				<stop  offset="1.000000e-02" style="stop-color:#00A1FF"/>
				<stop  offset="0.26" style="stop-color:#00BEFF"/>
				<stop  offset="0.51" style="stop-color:#00D2FF"/>
				<stop  offset="0.76" style="stop-color:#00DFFF"/>
				<stop  offset="1" style="stop-color:#00E3FF"/>
			</linearGradient>
			<path id="android-path64" class="st2" d="M31.7,22.6c-1,1.2-1.5,2.7-1.4,4.2v66.4c-0.1,1.5,0.4,3,1.4,4.2l0.2,0.2l37.6-37.2v-0.9
				L31.9,22.4L31.7,22.6z"/>
		</g>
		<g id="android-g66">
			
				<linearGradient id="android-path78_1_" gradientUnits="userSpaceOnUse" x1="-176.6568" y1="28.5926" x2="-179.0328" y2="28.5926" gradientTransform="matrix(30.84 0 0 25.7 5560.0698 -674.8304)">
				<stop  offset="0" style="stop-color:#FFE000"/>
				<stop  offset="0.41" style="stop-color:#FFBD00"/>
				<stop  offset="0.78" style="stop-color:#FFA500"/>
				<stop  offset="1" style="stop-color:#FF9C00"/>
			</linearGradient>
			<path id="android-path78" class="st3" d="M82,72.9L69.5,60.4v-0.9L82,47.1l0.3,0.2l14.8,8.4c4.2,2.4,4.2,6.3,0,8.7l-14.8,8.3
				L82,72.9z"/>
		</g>
		<g id="android-g80">
			
				<linearGradient id="android-path88_1_" gradientUnits="userSpaceOnUse" x1="-177.3894" y1="16.1055" x2="-178.7494" y2="17.8915" gradientTransform="matrix(50.66 0 0 38.5877 9169.1104 -662.023)">
				<stop  offset="0" style="stop-color:#FF3A44"/>
				<stop  offset="1" style="stop-color:#C31162"/>
			</linearGradient>
			<path id="android-path88" class="st4" d="M82.3,72.7L69.5,60L31.7,97.4c1.4,1.5,3.7,1.6,6.3,0.2L82.3,72.7"/>
		</g>
		<g id="android-g90">
			
				<linearGradient id="android-path104_1_" gradientUnits="userSpaceOnUse" x1="-182.2767" y1="15.9053" x2="-181.6687" y2="16.7033" gradientTransform="matrix(50.66 0 0 38.5767 9169.1104 -700.584)">
				<stop  offset="0" style="stop-color:#32A071"/>
				<stop  offset="7.000000e-02" style="stop-color:#2DA771"/>
				<stop  offset="0.48" style="stop-color:#15CF74"/>
				<stop  offset="0.8" style="stop-color:#06E775"/>
				<stop  offset="1" style="stop-color:#00F076"/>
			</linearGradient>
			<path id="android-path104" class="st5" d="M82.3,47.3L38,22.4c-2.6-1.4-4.9-1.3-6.3,0.2L69.5,60L82.3,47.3z"/>
		</g>
	</g>
</g>
</svg>
