<?xml version="1.0" encoding="utf-8"?>
<!-- Generator: Adobe Illustrator 25.2.0, SVG Export Plug-In . SVG Version: 6.00 Build 0)  -->
<svg version="1.1" id="katman_1" xmlns="http://www.w3.org/2000/svg" xmlns:xlink="http://www.w3.org/1999/xlink" x="0px" y="0px"
	 viewBox="0 0 409.8 120" style="enable-background:new 0 0 409.8 120;" xml:space="preserve">
<style type="text/css">
	.st0{fill:#020202;}
	.st1{fill:#FFFFFF;}
</style>
<g id="appstore" transform="translate(0)">
	<path id="Path_1" class="st0" d="M409.8,108c0.1,6.6-5.2,11.9-11.8,12c0,0,0,0,0,0H11.8C5.2,119.9,0,114.6,0,108V12
		C0,5.4,5.2,0.1,11.8,0H398c6.6,0.1,11.8,5.4,11.8,12L409.8,108L409.8,108z"/>
	<path id="Path_2" class="st1" d="M91.7,59.3c-0.1-9.8,8-14.5,8.4-14.7c-3.3-4.6-8.5-7.4-14.2-7.6c-6-0.7-11.7,3.5-14.8,3.5
		s-7.8-3.5-12.8-3.4c-6.6,0.2-12.7,3.9-15.9,9.7c-6.9,11.9-1.8,29.3,4.8,38.9c3.3,4.7,7.1,10,12.2,9.8s6.8-3.1,12.7-3.1
		s7.6,3.1,12.7,3s8.6-4.7,11.8-9.5c2.4-3.4,4.2-7.1,5.4-11C95.8,72.2,91.7,66.1,91.7,59.3z M82,30.6c2.9-3.5,4.3-7.9,4-12.4
		c-3.8,0.2-8.6,2.6-11.4,5.9c-2.5,2.9-4.7,7.5-4.1,11.9C74.8,36.4,79.3,33.9,82,30.6z"/>
	<path id="Path_3" class="st1" d="M162.9,94.8h-6.9L152.3,83h-13.1l-3.6,11.8h-6.7l13-40.3h8L162.9,94.8L162.9,94.8z M151.2,78
		l-3.4-10.5c-0.4-1.1-1-3.6-2-7.6h-0.1c-0.4,1.7-1,4.2-1.9,7.6L140.4,78H151.2z M196.3,80c0,4.9-1.3,8.8-4,11.7
		c-2.3,2.5-5.5,3.9-8.9,3.8c-3.8,0-6.6-1.4-8.2-4.1H175v15.3h-6.5V75.3c0-3.1-0.1-6.3-0.2-9.6h5.7l0.4,4.6h0.1
		c2.1-3.5,5.4-5.2,9.8-5.2c3.3,0,6.5,1.5,8.6,4.1C195.2,72,196.3,75.5,196.3,80z M189.7,80.2c0.1-2.5-0.6-4.9-1.9-7
		c-2.2-3.1-6.5-3.8-9.5-1.6c-0.2,0.1-0.3,0.2-0.5,0.3c-1.3,1.1-2.2,2.5-2.6,4.2c-0.2,0.7-0.3,1.3-0.3,2V83c0,2,0.7,3.9,2,5.3
		c1.3,1.4,3.1,2.2,5,2.2c2.2,0.1,4.4-1,5.7-2.8C189.1,85.5,189.8,82.8,189.7,80.2L189.7,80.2z M229.7,80c0,4.9-1.3,8.8-4,11.7
		c-2.3,2.5-5.5,3.9-8.9,3.8c-3.8,0-6.6-1.4-8.3-4.1h-0.2v15.3H202V75.3c0-3.1-0.1-6.3-0.2-9.6h5.7l0.4,4.6h0.1
		c2.1-3.5,5.4-5.2,9.8-5.2c3.3,0,6.5,1.5,8.6,4.1C228.6,72,229.7,75.5,229.7,80z M223.1,80.2c0.1-2.5-0.6-4.9-1.9-7
		c-1.3-1.8-3.4-2.9-5.6-2.9c-1.6,0-3.1,0.6-4.3,1.6c-1.3,1.1-2.2,2.5-2.5,4.2c-0.2,0.7-0.3,1.3-0.3,2V83c0,1.9,0.7,3.8,2,5.3
		c1.3,1.4,3.1,2.2,5,2.2c2.2,0.1,4.4-1,5.7-2.8C222.5,85.4,223.2,82.8,223.1,80.2L223.1,80.2z M267.1,83.6c0.1,3.2-1.2,6.3-3.6,8.4
		c-2.6,2.4-6.3,3.5-11,3.5c-4.3,0-7.8-0.8-10.4-2.5l1.5-5.4c2.8,1.7,6,2.6,9.3,2.6c2,0.1,4-0.5,5.7-1.7c1.3-1.1,2.1-2.7,2-4.4
		c0-1.5-0.6-3-1.7-4.1c-1.6-1.4-3.5-2.5-5.5-3.2c-7.1-2.6-10.6-6.5-10.6-11.5c-0.1-3.1,1.3-6.1,3.7-8.2c2.5-2.1,5.8-3.1,9.9-3.1
		c3.2-0.1,6.3,0.5,9.1,1.9l-1.6,5.3c-2.4-1.3-5-1.9-7.7-1.8c-1.9-0.1-3.8,0.5-5.3,1.7c-1,0.9-1.6,2.3-1.6,3.7c0,1.5,0.7,3,1.8,3.9
		c1.8,1.3,3.8,2.4,5.9,3.1c2.9,1,5.5,2.7,7.6,4.9C266.3,78.5,267.2,81,267.1,83.6L267.1,83.6z M288.4,70.6h-7.1v14.1
		c0,3.6,1.3,5.4,3.8,5.4c1,0,1.9-0.1,2.9-0.3l0.2,4.9c-1.6,0.5-3.3,0.8-5,0.7c-2.2,0.1-4.4-0.7-6-2.3c-1.4-1.6-2.1-4.2-2.1-7.8V70.6
		h-4.2v-4.8h4.2v-5.3l6.3-1.9v7.2h7.1V70.6z M320.5,80.1c0.2,4-1.2,7.9-3.8,11c-2.7,3-6.6,4.6-10.6,4.4c-3.9,0.2-7.6-1.4-10.2-4.2
		c-2.6-3-3.9-6.8-3.8-10.7c-0.2-4.1,1.2-8,3.9-11.1c2.7-2.9,6.6-4.5,10.6-4.3c3.9-0.2,7.6,1.4,10.3,4.2
		C319.3,72.4,320.7,76.2,320.5,80.1L320.5,80.1z M313.8,80.3c0.1-2.4-0.5-4.8-1.7-6.9c-1.1-2.2-3.4-3.5-5.8-3.5
		c-2.5-0.1-4.7,1.3-5.9,3.5c-1.2,2.1-1.8,4.6-1.7,7c-0.1,2.4,0.5,4.8,1.7,6.9c1.7,3.2,5.7,4.4,9,2.7c1.2-0.6,2.1-1.6,2.7-2.7
		C313.3,85.1,313.9,82.7,313.8,80.3L313.8,80.3z M341.5,71.5c-0.7-0.1-1.3-0.2-2-0.2c-2.1-0.1-4.1,0.9-5.3,2.6
		c-1.1,1.7-1.7,3.7-1.6,5.7v15.2h-6.4l0.1-19.9c0-3.3-0.1-6.4-0.2-9.2h5.6l0.2,5.6h0.2c0.6-1.8,1.7-3.4,3.2-4.6c1.3-1,3-1.5,4.7-1.6
		c0.5,0,1.1,0,1.6,0.1L341.5,71.5L341.5,71.5z M370.4,78.9c0,1-0.1,2-0.2,2.9h-19.4c-0.1,2.5,0.9,4.9,2.8,6.6c1.8,1.4,4,2.1,6.3,2
		c2.7,0,5.3-0.4,7.8-1.4l1,4.5c-3.1,1.3-6.4,1.9-9.7,1.8c-4.5,0-8-1.3-10.6-4s-3.9-6.2-3.9-10.7c-0.1-4,1.1-7.8,3.6-10.9
		c2.5-3.1,6.2-4.8,10.2-4.7c4.2,0,7.4,1.6,9.5,4.7C369.6,72.5,370.5,75.7,370.4,78.9L370.4,78.9z M364.2,77.3c0.1-1.8-0.3-3.5-1.3-5
		c-1.1-1.8-3.1-2.8-5.1-2.7c-2,0-4,0.9-5.1,2.6c-1.1,1.4-1.8,3.2-1.9,5L364.2,77.3L364.2,77.3z"/>
	<path id="Path_4" class="st1" d="M149,29.7c0,3.6-1.1,6.2-3.2,8c-2,1.7-4.8,2.5-8.4,2.5c-1.5,0-3.1-0.1-4.6-0.2V20.6
		c1.8-0.3,3.6-0.4,5.5-0.4c3.5,0,6.1,0.8,7.8,2.3C148.1,24.3,149.2,27,149,29.7z M145.7,29.8c0.1-1.9-0.5-3.9-1.8-5.3
		c-1.5-1.3-3.4-2-5.4-1.9c-0.9,0-1.7,0.1-2.6,0.2v14.8c0.7,0.1,1.4,0.1,2.1,0.1c2.1,0.1,4.1-0.6,5.6-2
		C145.1,34.1,145.8,32,145.7,29.8L145.7,29.8z M166.8,32.8c0.1,2-0.6,3.9-1.9,5.4c-1.3,1.5-3.2,2.3-5.2,2.2c-1.9,0.1-3.7-0.7-5-2.1
		c-1.3-1.5-1.9-3.3-1.9-5.2c-0.1-2,0.6-3.9,1.9-5.4c1.3-1.4,3.2-2.2,5.2-2.1c1.9-0.1,3.8,0.7,5.1,2.1
		C166.2,29.1,166.8,31,166.8,32.8L166.8,32.8z M163.5,32.9c0-1.2-0.3-2.4-0.9-3.4c-0.5-1.1-1.6-1.7-2.8-1.7c-1.2,0-2.4,0.6-2.9,1.7
		c-0.6,1.1-0.9,2.2-0.8,3.5c0,1.2,0.3,2.4,0.8,3.4c0.6,1.1,1.7,1.7,2.9,1.7c1.2,0,2.3-0.7,2.8-1.7C163.2,35.4,163.5,34.2,163.5,32.9
		L163.5,32.9z M190.5,25.8l-4.5,14.3h-2.9l-1.9-6.2c-0.5-1.5-0.8-3.1-1.2-4.6h-0.1c-0.3,1.6-0.6,3.1-1.1,4.6l-2,6.2h-2.9l-4.2-14.3
		h3.3l1.6,6.8c0.4,1.6,0.7,3.1,1,4.6h0.1c0.2-1.2,0.6-2.7,1.2-4.5l2-6.8h2.6l1.9,6.7c0.5,1.6,0.9,3.2,1.2,4.7h0.1
		c0.2-1.6,0.6-3.2,1-4.7l1.7-6.7L190.5,25.8L190.5,25.8z M207,40.1h-3.2v-8.2c0-2.5-1-3.8-2.9-3.8c-0.9,0-1.7,0.3-2.3,1
		c-0.6,0.7-0.9,1.6-0.9,2.5v8.5h-3.2V29.9c0-1.2,0-2.6-0.1-4.1h2.8l0.1,2.2h0.1c0.4-0.7,0.9-1.3,1.6-1.7c0.9-0.5,1.9-0.8,2.9-0.8
		c1.3-0.1,2.5,0.4,3.4,1.3c1.2,1.3,1.8,3,1.6,4.7L207,40.1L207,40.1z M215.7,40.1h-3.2V19.3h3.2V40.1z M234.4,32.9
		c0.1,2-0.6,3.9-1.9,5.4c-1.3,1.5-3.3,2.3-5.2,2.2c-1.9,0.1-3.7-0.7-5-2.1c-1.3-1.4-1.9-3.3-1.9-5.2c-0.1-2,0.6-3.9,1.9-5.4
		c1.3-1.4,3.2-2.2,5.2-2.1c1.9-0.1,3.8,0.7,5.1,2.1C233.9,29.1,234.5,31,234.4,32.9L234.4,32.9z M231.1,33c0-1.2-0.3-2.4-0.8-3.4
		c-0.5-1.1-1.7-1.7-2.9-1.7c-1.2,0-2.3,0.6-2.9,1.7c-0.6,1-0.9,2.2-0.8,3.4c0,1.2,0.3,2.4,0.8,3.4c0.6,1.1,1.7,1.7,2.9,1.7
		c1.2,0,2.3-0.7,2.9-1.7C230.8,35.4,231.1,34.2,231.1,33L231.1,33z M249.8,40.1h-2.9l-0.2-1.6h-0.1c-1,1.3-2.5,2.1-4.2,2
		c-1.2,0.1-2.4-0.4-3.2-1.3c-0.7-0.8-1.2-1.8-1.1-2.9c-0.1-1.6,0.8-3.2,2.2-4c1.9-1,4-1.5,6.1-1.4v-0.3c0-1.9-1-2.8-3-2.8
		c-1.3,0-2.6,0.3-3.7,1.1l-0.6-2.1c1.5-0.9,3.2-1.3,4.9-1.2c3.7,0,5.6,2,5.6,5.9v5.3C249.5,37.8,249.6,39,249.8,40.1L249.8,40.1z
		 M246.5,35.2V33c-3.5-0.1-5.2,0.9-5.2,2.9c-0.1,0.6,0.2,1.2,0.6,1.7c0.4,0.4,1,0.6,1.6,0.5c0.7,0,1.4-0.2,2-0.6
		c0.6-0.4,1-1,1.1-1.7C246.5,35.6,246.5,35.4,246.5,35.2L246.5,35.2z M267.8,40.1H265l-0.1-2.3h-0.1c-0.9,1.7-2.7,2.8-4.6,2.6
		c-1.7,0-3.2-0.7-4.3-2c-1.2-1.5-1.8-3.4-1.7-5.2c-0.1-2,0.6-4,1.9-5.6c1.1-1.3,2.7-2,4.4-2c1.6-0.1,3.1,0.6,4,1.9h0.1v-8.2h3.2v17
		C267.7,37.7,267.7,39,267.8,40.1L267.8,40.1z M264.5,34.1v-2.4c0-0.3,0-0.7-0.1-1c-0.2-0.7-0.6-1.4-1.1-1.9
		c-0.6-0.5-1.3-0.8-2.1-0.8c-1.1,0-2.2,0.5-2.8,1.4c-0.7,1.1-1.1,2.3-1,3.6c-0.1,1.2,0.3,2.4,1,3.4c0.6,0.9,1.7,1.4,2.8,1.4
		c1,0,1.9-0.4,2.5-1.2C264.3,35.9,264.6,35,264.5,34.1L264.5,34.1z M295,32.9c0.1,2-0.6,3.9-1.9,5.4c-1.3,1.5-3.3,2.2-5.2,2.2
		c-1.9,0.1-3.7-0.7-5-2.1c-1.3-1.4-1.9-3.3-1.9-5.2c-0.1-2,0.6-3.9,1.9-5.4c1.3-1.4,3.2-2.2,5.2-2.1c1.9-0.1,3.7,0.7,5,2.1
		C294.3,29.1,295,31,295,32.9L295,32.9z M291.7,33c0-1.2-0.3-2.4-0.9-3.4c-0.5-1.1-1.7-1.7-2.9-1.7c-1.2,0-2.3,0.6-2.9,1.7
		c-0.6,1-0.9,2.2-0.9,3.4c0,1.2,0.3,2.4,0.9,3.4c0.6,1.1,1.7,1.7,2.9,1.7c1.2,0,2.3-0.7,2.9-1.7C291.4,35.3,291.7,34.2,291.7,33
		L291.7,33z M312,40.1h-3.2v-8.2c0-2.5-0.9-3.8-2.9-3.8c-0.9,0-1.7,0.3-2.3,1c-0.6,0.7-0.9,1.6-0.9,2.5v8.5h-3.2V29.9
		c0-1.2,0-2.6-0.1-4.1h2.8l0.2,2.2h0.1c0.4-0.7,1-1.3,1.6-1.7c0.9-0.5,1.9-0.8,2.9-0.8c1.2,0,2.4,0.4,3.3,1.3c1.2,1.3,1.8,3,1.6,4.7
		V40.1z M333.4,28.2h-3.5v6.9c0,1.8,0.6,2.6,1.8,2.6c0.5,0,1,0,1.4-0.2l0.1,2.4c-0.8,0.3-1.6,0.4-2.5,0.4c-1.1,0.1-2.2-0.4-2.9-1.1
		c-0.8-1.1-1.2-2.5-1.1-3.8v-7.2h-2.1v-2.4h2.1v-2.6l3.1-0.9v3.6h3.5V28.2z M350.2,40.1H347V32c0-2.6-1-3.8-2.9-3.8
		c-1.4,0-2.6,0.9-3,2.2c-0.1,0.4-0.2,0.8-0.1,1.1v8.6h-3.2V19.3h3.2v8.6h0.1c0.9-1.5,2.5-2.4,4.3-2.3c1.2,0,2.4,0.4,3.3,1.3
		c1.2,1.3,1.7,3,1.6,4.8L350.2,40.1L350.2,40.1z M367.5,32.3c0,0.5,0,1-0.1,1.4h-9.5c0,1.2,0.5,2.4,1.4,3.3c0.9,0.7,2,1.1,3.1,1
		c1.3,0,2.6-0.2,3.9-0.7l0.5,2.2c-1.5,0.6-3.1,0.9-4.8,0.9c-1.9,0.1-3.8-0.6-5.2-2c-1.3-1.4-2-3.3-1.9-5.2c-0.1-1.9,0.6-3.9,1.8-5.4
		c1.2-1.5,3.1-2.4,5-2.3c1.8-0.1,3.6,0.8,4.7,2.3C367.1,29.2,367.6,30.7,367.5,32.3L367.5,32.3z M364.5,31.5c0-0.9-0.2-1.7-0.6-2.4
		c-0.5-0.9-1.5-1.4-2.5-1.3c-1,0-2,0.4-2.6,1.3c-0.5,0.7-0.9,1.6-0.9,2.5L364.5,31.5z"/>
</g>
</svg>
